<?xml version="1.0" encoding="UTF-8"?>
<svg xmlns="http://www.w3.org/2000/svg" xmlns:xlink="http://www.w3.org/1999/xlink" width="128px" height="128px" viewBox="0 0 128 128" version="1.1">
<g id="surface1">
<path style=" stroke:none;fill-rule:nonzero;fill:rgb(98.039216%,38.039216%,28.627452%);fill-opacity:1;" d="M 98.425781 61.800781 C 99.273438 59.898438 99.601562 57.925781 99.199219 56.648438 C 98.800781 55.375 98.375 54.75 98.601562 53.773438 C 98.824219 52.800781 102.300781 51.773438 103.75 51.375 C 106.125 50.726562 108.199219 50.25 110.050781 50.125 C 110.925781 50.074219 111.175781 50.550781 110.601562 50.976562 C 109.699219 51.648438 107.773438 53.175781 105.648438 54.574219 C 102.425781 56.699219 103.023438 59.5 98.425781 61.800781 Z M 94.976562 58.601562 C 94.75 60.550781 92.398438 64.449219 92.398438 64.449219 C 92.398438 64.449219 92.226562 63.800781 92.125 63.425781 C 92.023438 63.050781 91.726562 62.976562 91.726562 62.976562 C 91.726562 62.976562 90.851562 66.449219 89.75 67.300781 C 87.351562 69.148438 85.824219 68.398438 83.425781 73.625 C 82.925781 74.726562 83.351562 77.023438 83 77.550781 C 83.175781 78.125 83.375 79.148438 83 80.550781 C 81.824219 80.175781 79.601562 79.976562 79.601562 79.976562 C 79.601562 79.976562 81.300781 80.824219 82.375 81.375 C 82.273438 81.949219 80.675781 85.351562 80.273438 85.699219 C 78.5 85.023438 76.324219 84.601562 76.324219 84.601562 C 76.324219 84.601562 77.875 85.574219 79.574219 86.550781 C 79.324219 87.199219 77.199219 89.800781 76.675781 90.074219 C 75.175781 88.773438 73.175781 88.050781 73.175781 88.050781 C 73.175781 88.050781 74.25 89.148438 76.175781 90.851562 C 74.074219 92.476562 71.5 91.976562 69.550781 91.574219 C 69.351562 91.523438 68.675781 90.226562 68.675781 90.226562 C 68.675781 90.226562 68.101562 91.550781 66.726562 90.601562 C 65.851562 90 65.050781 88.851562 65.101562 87.675781 C 65.148438 86.425781 66.125 84.773438 69.175781 83.125 C 71.023438 82.125 71.898438 79.898438 71.773438 77.324219 C 71.898438 76.550781 72.476562 72.5 72.824219 70.675781 C 73.273438 68.375 74.324219 63.949219 76.300781 61.199219 C 77.949219 58.925781 80.324219 57.851562 84.523438 56.449219 C 89.199219 54.898438 92.050781 54.824219 94.523438 54.574219 C 94.5 54.5 95.300781 56 94.976562 58.601562 Z M 84.976562 62.648438 C 86.148438 61.425781 86.550781 59.898438 86.550781 59.898438 C 86.550781 59.898438 82.699219 60.699219 81.148438 60.949219 C 78.398438 61.375 78.101562 62.074219 77.125 63.375 C 76.375 64.375 76.300781 65.125 76.574219 66.75 C 76.648438 67.25 77 67.476562 77.300781 68.023438 C 77.625 68.625 77.699219 69.75 77.898438 69.726562 C 78.199219 69.699219 79.324219 68.523438 80.601562 68.175781 C 82.800781 67.550781 83.324219 64.375 84.976562 62.648438 Z M 79.875 67.949219 C 78.800781 67.949219 77.925781 66.949219 77.925781 65.726562 C 77.925781 64.5 78.824219 63.726562 79.875 63.5 C 81.824219 63.050781 81.601562 64.351562 81.824219 65.726562 C 82.023438 66.925781 80.949219 67.949219 79.875 67.949219 Z M 79.648438 66.300781 C 79.648438 66.199219 79.574219 66.125 79.476562 66.125 C 79.375 66.125 79.300781 66.199219 79.300781 66.300781 C 79.300781 66.398438 79.375 66.476562 79.476562 66.476562 C 79.574219 66.449219 79.648438 66.375 79.648438 66.300781 Z M 80.398438 66.324219 C 80.398438 66.175781 80.300781 66.050781 80.199219 66.050781 C 80.101562 66.050781 80 66.175781 80 66.324219 C 80 66.476562 80.101562 66.601562 80.199219 66.601562 C 80.300781 66.601562 80.398438 66.476562 80.398438 66.324219 Z M 80.398438 65.550781 C 80.398438 65.226562 80.199219 64.976562 79.925781 64.976562 C 79.675781 64.976562 79.449219 65.226562 79.449219 65.550781 C 79.449219 65.875 79.648438 66.125 79.925781 66.125 C 80.175781 66.125 80.398438 65.875 80.398438 65.550781 Z M 29.574219 61.800781 C 28.726562 59.898438 28.398438 57.925781 28.800781 56.648438 C 29.199219 55.375 29.625 54.75 29.398438 53.773438 C 29.175781 52.800781 25.699219 51.773438 24.25 51.375 C 21.875 50.726562 19.800781 50.25 17.949219 50.125 C 17.074219 50.074219 16.824219 50.550781 17.398438 50.976562 C 18.300781 51.648438 20.226562 53.175781 22.351562 54.574219 C 25.574219 56.699219 24.976562 59.5 29.574219 61.800781 Z M 33.5 54.5 C 35.949219 54.75 38.824219 54.851562 43.5 56.375 C 47.699219 57.75 50.101562 58.851562 51.726562 61.125 C 53.699219 63.875 54.75 68.300781 55.199219 70.601562 C 55.550781 72.449219 56.125 76.5 56.25 77.25 C 56.125 79.824219 57 82.050781 58.851562 83.050781 C 61.898438 84.699219 62.898438 86.351562 62.925781 87.601562 C 62.976562 88.773438 62.175781 89.925781 61.300781 90.523438 C 59.925781 91.476562 59.351562 90.148438 59.351562 90.148438 C 59.351562 90.148438 58.675781 91.476562 58.476562 91.5 C 56.523438 91.898438 53.949219 92.398438 51.851562 90.773438 C 53.773438 89.074219 54.851562 87.976562 54.851562 87.976562 C 54.851562 87.976562 52.824219 88.699219 51.351562 90 C 50.851562 89.726562 48.699219 87.125 48.449219 86.476562 C 50.148438 85.5 51.699219 84.523438 51.699219 84.523438 C 51.699219 84.523438 49.523438 84.949219 47.75 85.625 C 47.351562 85.273438 45.75 81.875 45.648438 81.300781 C 46.726562 80.75 48.425781 79.898438 48.425781 79.898438 C 48.425781 79.898438 46.199219 80.101562 45.023438 80.476562 C 44.648438 79.074219 44.851562 78.050781 45.023438 77.476562 C 44.675781 76.976562 45.101562 74.648438 44.601562 73.550781 C 42.199219 68.324219 40.675781 69.074219 38.273438 67.226562 C 37.175781 66.375 36.300781 62.898438 36.300781 62.898438 C 36.300781 62.898438 36.023438 62.976562 35.898438 63.351562 C 35.800781 63.726562 35.625 64.375 35.625 64.375 C 35.625 64.375 33.300781 60.476562 33.050781 58.523438 C 32.699219 56 33.5 54.5 33.5 54.5 Z M 47.398438 68.148438 C 48.675781 68.5 49.800781 69.675781 50.101562 69.699219 C 50.300781 69.726562 50.375 68.601562 50.699219 68 C 51 67.476562 51.324219 67.226562 51.425781 66.726562 C 51.726562 65.101562 51.625 64.375 50.875 63.351562 C 49.925781 62.050781 49.601562 61.351562 46.851562 60.925781 C 45.273438 60.675781 41.449219 59.875 41.449219 59.875 C 41.449219 59.875 41.875 61.398438 43.023438 62.625 C 44.675781 64.375 45.199219 67.550781 47.398438 68.148438 Z M 46.175781 65.699219 C 46.398438 64.300781 46.175781 63.023438 48.125 63.476562 C 49.175781 63.726562 50.074219 64.476562 50.074219 65.699219 C 50.074219 66.925781 49.199219 67.925781 48.125 67.925781 C 47.050781 67.949219 45.976562 66.925781 46.175781 65.699219 Z M 48.5 66.449219 C 48.601562 66.449219 48.675781 66.375 48.675781 66.273438 C 48.675781 66.175781 48.601562 66.101562 48.5 66.101562 C 48.398438 66.101562 48.324219 66.175781 48.324219 66.273438 C 48.351562 66.375 48.425781 66.449219 48.5 66.449219 Z M 47.800781 66.574219 C 47.898438 66.574219 48 66.449219 48 66.300781 C 48 66.148438 47.898438 66.023438 47.800781 66.023438 C 47.699219 66.023438 47.601562 66.148438 47.601562 66.300781 C 47.601562 66.476562 47.699219 66.574219 47.800781 66.574219 Z M 48.074219 66.125 C 48.324219 66.125 48.550781 65.875 48.550781 65.550781 C 48.550781 65.226562 48.351562 64.976562 48.074219 64.976562 C 47.824219 64.976562 47.601562 65.226562 47.601562 65.550781 C 47.601562 65.875 47.824219 66.125 48.074219 66.125 Z M 70 77.523438 C 69.476562 76.675781 68.425781 76.5 66.875 76.375 C 65.476562 76.25 64 76.273438 64 76.273438 C 64 76.273438 62.523438 76.273438 61.125 76.375 C 59.574219 76.5 58.523438 76.699219 58 77.523438 C 57.398438 78.476562 57.125 80.523438 60.550781 82.773438 C 60.726562 82.898438 60.824219 82.425781 60.300781 81.925781 C 59.5 81.148438 59.074219 78.625 59.574219 78.75 C 60.800781 79.101562 62.125 81.273438 61.601562 82.925781 C 61.476562 83.351562 62.449219 84.125 62.898438 84.300781 C 63.601562 84.574219 64.023438 84.574219 64.023438 84.574219 C 64.023438 84.574219 64.449219 84.574219 65.148438 84.300781 C 65.601562 84.125 66.574219 83.351562 66.449219 82.925781 C 65.925781 81.300781 67.25 79.101562 68.476562 78.75 C 68.976562 78.601562 68.550781 81.148438 67.75 81.925781 C 67.226562 82.425781 67.351562 82.898438 67.5 82.773438 C 70.875 80.523438 70.601562 78.5 70 77.523438 Z M 109.148438 55.925781 C 109.375 58.148438 108.925781 60.273438 108.5 60.601562 C 108.476562 59.851562 108.300781 59.273438 108.050781 58.824219 C 107.726562 58.175781 107.300781 57.898438 107.300781 57.898438 C 107.300781 57.898438 107.75 59.800781 107.226562 65.476562 C 106.898438 69.074219 104.699219 72.699219 104.699219 72.699219 C 104.699219 72.699219 104.75 71.226562 104.175781 69.425781 C 103.675781 67.898438 102.550781 66.925781 102.550781 66.925781 C 102.550781 66.925781 103.476562 70.101562 103.601562 71.449219 C 104.574219 81.625 96.574219 87 96.574219 87 C 96.574219 87 96.773438 85.773438 96.324219 83.550781 C 96 81.851562 94.824219 80.851562 94.824219 80.851562 C 95.425781 82.074219 95.800781 84.898438 94.949219 86.699219 C 94.226562 88.25 93.25 88.925781 91.625 90.523438 C 89.824219 92.300781 85.800781 93.976562 85.800781 93.976562 C 85.800781 93.976562 86.023438 91.675781 85.726562 91.226562 C 85.75 91.675781 84.648438 94.398438 83.324219 95.050781 C 82.101562 95.625 80.300781 96.976562 79.449219 98.5 C 79.601562 97.023438 79.75 95.699219 79.976562 94.523438 C 78.148438 97.125 75.199219 101 72.226562 102.898438 C 72.449219 101.101562 72.875 100.074219 72.226562 98.800781 C 71.851562 102.125 68.101562 105.324219 68.101562 105.324219 C 68.101562 105.324219 68.898438 101.726562 68.523438 99.875 C 65.875 107.125 64 108.449219 64 108.449219 C 64 108.449219 62.125 107.125 59.476562 99.875 C 59.101562 101.699219 59.898438 105.324219 59.898438 105.324219 C 59.898438 105.324219 56.148438 102.125 55.773438 98.800781 C 55.125 100.074219 55.550781 101.101562 55.773438 102.898438 C 52.800781 100.976562 49.851562 97.125 48.023438 94.523438 C 48.25 95.699219 48.398438 97.023438 48.550781 98.5 C 47.699219 96.976562 45.925781 95.648438 44.675781 95.050781 C 43.324219 94.398438 42.226562 91.699219 42.273438 91.226562 C 41.949219 91.675781 42.199219 93.976562 42.199219 93.976562 C 42.199219 93.976562 38.148438 92.300781 36.375 90.523438 C 34.75 88.925781 33.773438 88.226562 33.050781 86.699219 C 32.199219 84.898438 32.574219 82.074219 33.175781 80.851562 C 33.175781 80.851562 32 81.824219 31.675781 83.550781 C 31.25 85.773438 31.425781 87 31.425781 87 C 31.425781 87 23.449219 81.625 24.398438 71.449219 C 24.523438 70.101562 25.449219 66.925781 25.449219 66.925781 C 25.449219 66.925781 24.324219 67.925781 23.824219 69.425781 C 23.25 71.226562 23.300781 72.699219 23.300781 72.699219 C 23.300781 72.699219 21.074219 69.101562 20.75 65.5 C 20.25 59.800781 20.675781 57.925781 20.675781 57.925781 C 20.675781 57.925781 20.25 58.199219 19.925781 58.851562 C 19.699219 59.300781 19.5 59.875 19.476562 60.625 C 19.050781 60.324219 18.601562 58.175781 18.824219 55.949219 C 19 54.273438 19.550781 53.949219 19.550781 53.949219 C 19.550781 53.949219 22.226562 55.375 23.550781 57.773438 C 26.148438 62.523438 30.148438 63.425781 31.273438 63.800781 C 31.425781 62.773438 29.5 59.449219 29.925781 57.101562 C 30.300781 55.050781 31.550781 54.949219 30.476562 53 C 29.824219 51.824219 27.125 50.898438 24.625 50.273438 C 24 50.125 22.773438 49.875 22.398438 49.773438 C 20.875 49.425781 19.898438 49.375 19.125 48.425781 C 18.425781 47.550781 18.625 46.675781 18.625 46.675781 C 18.625 46.675781 20.125 47.324219 21.699219 46.300781 C 23.726562 45 21.273438 42.800781 24.75 39.699219 C 26.898438 37.773438 29.699219 38.175781 29.699219 38.175781 C 29.699219 38.175781 28 37.050781 26 37.148438 C 24.148438 37.226562 22.75 37.601562 20.75 40 C 21.800781 35.125 24.175781 33.398438 26.648438 32.074219 C 28.949219 30.851562 32.648438 30.476562 35.148438 30.675781 C 35.148438 30.675781 34.226562 29.425781 32.550781 28.898438 C 30.273438 28.148438 28.773438 28.351562 27.625 28.773438 C 28.476562 27.148438 31.550781 25.625 35.726562 25.375 C 40.675781 25.074219 44.851562 26.800781 44.851562 26.800781 C 44.851562 26.800781 45.125 25.949219 43.476562 24.949219 C 41.398438 23.699219 38.699219 23.5 37.601562 23.898438 C 38.324219 22.949219 41.425781 21.398438 47.074219 22.273438 C 50.550781 22.824219 52.050781 23.449219 52.050781 23.449219 C 52.050781 23.449219 52 22.476562 51.175781 21.824219 C 50.398438 21.199219 49.398438 20.925781 48.550781 20.773438 C 49.101562 20.375 52.324219 20.023438 55.449219 19.800781 C 59.398438 19.523438 64.023438 19.5 64.023438 19.5 C 64.023438 19.5 68.648438 19.5 72.601562 19.800781 C 75.726562 20.023438 78.949219 20.351562 79.5 20.773438 C 78.648438 20.925781 77.648438 21.199219 76.875 21.824219 C 76.050781 22.476562 76 23.449219 76 23.449219 C 76 23.449219 77.5 22.824219 80.976562 22.273438 C 86.601562 21.398438 89.699219 22.949219 90.449219 23.898438 C 89.324219 23.523438 86.648438 23.699219 84.574219 24.949219 C 82.925781 25.949219 83.199219 26.800781 83.199219 26.800781 C 83.199219 26.800781 87.351562 25.050781 92.324219 25.375 C 96.523438 25.625 99.574219 27.148438 100.425781 28.773438 C 99.273438 28.375 97.773438 28.148438 95.5 28.898438 C 93.824219 29.449219 92.898438 30.675781 92.898438 30.675781 C 95.398438 30.476562 99.101562 30.851562 101.398438 32.074219 C 103.875 33.398438 106.25 35.125 107.300781 40 C 105.324219 37.601562 103.925781 37.226562 102.050781 37.148438 C 100.050781 37.050781 98.351562 38.175781 98.351562 38.175781 C 98.351562 38.175781 101.175781 37.773438 103.300781 39.699219 C 106.773438 42.800781 104.324219 45 106.351562 46.300781 C 107.925781 47.300781 109.425781 46.675781 109.425781 46.675781 C 109.425781 46.675781 109.601562 47.550781 108.925781 48.425781 C 108.175781 49.375 107.199219 49.425781 105.648438 49.773438 C 105.25 49.875 104.023438 50.125 103.425781 50.273438 C 100.925781 50.898438 98.226562 51.851562 97.574219 53 C 96.5 54.925781 97.75 55.023438 98.125 57.101562 C 98.550781 59.449219 96.625 62.773438 96.773438 63.800781 C 97.898438 63.425781 101.898438 62.523438 104.5 57.773438 C 105.824219 55.375 108.5 53.949219 108.5 53.949219 C 108.5 53.949219 108.976562 54.25 109.148438 55.925781 Z M 70.199219 42.800781 L 70.300781 42.800781 C 70.675781 41.273438 70.976562 39.800781 71.300781 38.300781 C 71.648438 36.824219 71.851562 35.324219 72.324219 33.875 C 72.75 32.425781 73.425781 31.074219 74.25 29.800781 C 75.101562 28.523438 76.074219 27.351562 77.25 26.351562 L 77.199219 26.273438 C 75.949219 27.175781 74.851562 28.300781 73.875 29.523438 C 72.925781 30.773438 72.125 32.148438 71.601562 33.625 C 71.050781 35.101562 70.574219 36.601562 70.351562 38.148438 C 70.125 39.675781 70.023438 41.226562 70.199219 42.800781 Z M 67.199219 64.550781 L 67.300781 64.550781 C 67.949219 61.699219 68.699219 58.875 69.601562 56.125 C 70.5 53.375 71.476562 50.648438 72.800781 48.074219 C 74.148438 45.550781 75.976562 43.226562 78.023438 41.199219 C 80.074219 39.148438 82.351562 37.273438 84.800781 35.699219 L 84.75 35.625 C 82.199219 37.074219 79.851562 38.851562 77.675781 40.851562 C 75.523438 42.851562 73.601562 45.125 72.101562 47.699219 C 70.648438 50.273438 69.425781 53 68.648438 55.851562 C 68.25 57.273438 67.925781 58.699219 67.675781 60.148438 C 67.425781 61.601562 67.25 63.074219 67.199219 64.550781 Z M 50.75 26.351562 C 51.898438 27.351562 52.898438 28.550781 53.75 29.800781 C 54.601562 31.074219 55.25 32.425781 55.675781 33.875 C 56.125 35.324219 56.351562 36.824219 56.699219 38.300781 C 57.023438 39.773438 57.324219 41.273438 57.699219 42.800781 L 57.800781 42.800781 C 57.976562 41.25 57.898438 39.675781 57.699219 38.125 C 57.5 36.574219 57 35.074219 56.449219 33.601562 C 55.898438 32.125 55.125 30.726562 54.175781 29.5 C 53.199219 28.273438 52.101562 27.175781 50.851562 26.25 Z M 43.199219 35.699219 C 45.648438 37.273438 47.925781 39.125 49.976562 41.199219 C 52.023438 43.25 53.824219 45.550781 55.199219 48.074219 C 56.523438 50.648438 57.5 53.375 58.398438 56.125 C 59.300781 58.875 60.050781 61.699219 60.699219 64.550781 L 60.800781 64.550781 C 60.75 63.074219 60.574219 61.625 60.324219 60.175781 C 60.074219 58.726562 59.75 57.273438 59.351562 55.875 C 58.550781 53.023438 57.351562 50.300781 55.898438 47.726562 C 54.398438 45.148438 52.476562 42.875 50.324219 40.875 C 48.148438 38.875 45.800781 37.125 43.25 35.648438 Z M 32.449219 43.273438 C 34.324219 43.699219 36.148438 44.351562 37.800781 45.300781 C 39.476562 46.199219 40.875 47.5 42.324219 48.773438 C 43.75 50.050781 45.101562 51.425781 46.476562 52.824219 L 46.550781 52.773438 C 46.074219 51.898438 45.550781 51.074219 44.949219 50.300781 C 44.351562 49.523438 43.699219 48.773438 43.023438 48.074219 C 41.648438 46.648438 39.976562 45.5 38.175781 44.625 C 36.398438 43.726562 34.476562 43.175781 32.550781 42.824219 C 30.601562 42.523438 28.648438 42.398438 26.699219 42.601562 L 26.699219 42.699219 C 28.625 42.601562 30.574219 42.824219 32.449219 43.273438 Z M 67.773438 95.324219 C 67.125 95.5 66.5 95.5 65.875 95.550781 C 65.25 95.574219 64.625 95.550781 64 95.550781 C 63.375 95.550781 62.75 95.574219 62.125 95.550781 C 61.5 95.523438 60.875 95.523438 60.226562 95.324219 C 60.425781 95.601562 60.75 95.773438 61.050781 95.949219 C 61.351562 96.101562 61.675781 96.226562 62 96.300781 C 62.648438 96.476562 63.324219 96.550781 64 96.550781 C 64.675781 96.550781 65.324219 96.476562 66 96.300781 C 66.324219 96.226562 66.648438 96.101562 66.949219 95.949219 C 67.25 95.773438 67.550781 95.601562 67.773438 95.324219 Z M 95.449219 53.351562 C 92.625 53.398438 91.074219 53.550781 88.125 54.101562 C 83.773438 54.898438 82.050781 55.699219 78.800781 57.148438 C 75.75 58.523438 73.75 60.976562 72.875 64.550781 C 72.726562 65.175781 72.550781 65.898438 72.375 66.648438 C 72.375 66.675781 72.375 66.675781 72.375 66.699219 C 72.351562 66.851562 72.300781 67.023438 72.273438 67.175781 C 72.273438 67.226562 72.25 67.25 72.25 67.300781 C 72.226562 67.449219 72.175781 67.601562 72.148438 67.75 C 72.148438 67.773438 72.148438 67.800781 72.125 67.824219 C 72.074219 68 72.050781 68.199219 72 68.375 C 72 68.398438 72 68.425781 71.976562 68.449219 C 71.949219 68.625 71.898438 68.773438 71.875 68.949219 C 71.125 72.601562 70.476562 76.273438 70.476562 76.273438 C 70.476562 76.273438 70.148438 75.898438 69.625 75.726562 C 70.125 72.300781 69.523438 69.699219 69.523438 69.699219 C 69.523438 69.699219 69.074219 75 68.75 75.523438 C 68.148438 75.425781 67.824219 75.449219 67.25 75.398438 C 66.601562 75.351562 66.175781 75.351562 65.601562 75.324219 C 65.675781 74.5 65.351562 73.898438 65.351562 73.898438 C 65.351562 73.898438 65.101562 75.324219 64.976562 75.324219 C 64.476562 75.324219 63.949219 75.324219 63.949219 75.324219 C 63.949219 75.324219 63.425781 75.351562 62.925781 75.324219 C 62.824219 75.324219 62.550781 73.898438 62.550781 73.898438 C 62.550781 73.898438 62.226562 74.523438 62.300781 75.324219 C 61.726562 75.351562 61.300781 75.351562 60.648438 75.398438 C 60.074219 75.449219 59.75 75.398438 59.148438 75.523438 C 58.824219 75.023438 58.375 69.699219 58.375 69.699219 C 58.375 69.699219 57.773438 72.300781 58.273438 75.726562 C 57.75 75.898438 57.425781 76.273438 57.425781 76.273438 C 57.425781 76.273438 56.773438 72.601562 56.023438 68.949219 C 56 68.773438 55.949219 68.601562 55.925781 68.449219 C 55.925781 68.425781 55.925781 68.398438 55.898438 68.375 C 55.851562 68.199219 55.824219 68 55.773438 67.824219 C 55.773438 67.800781 55.773438 67.773438 55.75 67.75 C 55.726562 67.601562 55.675781 67.449219 55.648438 67.300781 C 55.648438 67.25 55.625 67.226562 55.625 67.175781 C 55.601562 67 55.550781 66.851562 55.523438 66.699219 C 55.523438 66.675781 55.523438 66.675781 55.523438 66.648438 C 55.351562 65.898438 55.199219 65.175781 55.023438 64.550781 C 54.125 60.976562 52.148438 58.5 49.101562 57.148438 C 45.875 55.699219 44.125 54.898438 39.773438 54.101562 C 36.824219 53.550781 35.273438 53.398438 32.449219 53.351562 C 30.898438 57.25 31.726562 60.976562 34.273438 64.800781 C 35.351562 66.425781 35.699219 67.976562 37.101562 69.5 C 37.375 69.800781 39.898438 70.550781 40.398438 71 C 40.898438 71.449219 43.574219 77.925781 43.375 80 C 43.449219 80.273438 43.523438 80.574219 43.625 80.898438 C 42.925781 81.101562 41.550781 81.5 40.175781 81.949219 C 36.898438 83.050781 33.699219 84.625 33.875 84.648438 C 33.875 84.648438 37.726562 83.574219 40 82.875 C 41.75 82.324219 43.148438 82.023438 43.898438 81.875 C 44.324219 83.273438 44.925781 84.851562 45.675781 86.324219 C 45.351562 86.449219 44.949219 86.625 44.425781 86.851562 C 42.199219 87.824219 39 90 39 90 C 39 90 41.625 88.976562 44.726562 87.875 C 45.324219 87.675781 45.824219 87.5 46.25 87.375 C 46.625 88 47.023438 88.574219 47.476562 89.101562 C 47.925781 89.601562 48.550781 90.425781 49.449219 91.300781 C 49.199219 91.476562 48.925781 91.648438 48.75 91.773438 C 48.023438 92.324219 45.824219 94.425781 45.824219 94.425781 C 45.824219 94.425781 48.074219 93.199219 48.925781 92.675781 C 49.351562 92.425781 49.773438 92.148438 50.125 91.925781 C 51.101562 92.773438 52.351562 93.648438 53.949219 94.351562 C 56 95.25 57.449219 93.75 59.273438 93.023438 C 61.199219 92.273438 62.699219 91.726562 62.699219 91.726562 L 63.875 91.601562 L 65.050781 91.726562 C 65.050781 91.726562 66.550781 92.273438 68.476562 93.023438 C 70.324219 93.726562 71.773438 95.226562 73.800781 94.351562 C 75.398438 93.648438 76.648438 92.773438 77.625 91.925781 C 77.976562 92.148438 78.398438 92.425781 78.824219 92.675781 C 79.675781 93.199219 81.925781 94.425781 81.925781 94.425781 C 81.925781 94.425781 79.726562 92.324219 79 91.773438 C 78.824219 91.648438 78.574219 91.476562 78.300781 91.300781 C 79.199219 90.425781 79.824219 89.601562 80.273438 89.101562 C 80.726562 88.574219 81.125 88 81.5 87.375 C 81.925781 87.5 82.425781 87.675781 83.023438 87.875 C 86.125 88.949219 88.75 90 88.75 90 C 88.75 90 85.574219 87.824219 83.324219 86.851562 C 82.800781 86.625 82.398438 86.449219 82.074219 86.324219 C 82.824219 84.851562 83.425781 83.273438 83.851562 81.875 C 84.601562 82.023438 86.023438 82.324219 87.75 82.875 C 90.023438 83.574219 93.875 84.648438 93.875 84.648438 C 94.023438 84.625 90.851562 83.050781 87.574219 81.949219 C 86.199219 81.5 84.824219 81.101562 84.125 80.898438 C 84.226562 80.574219 84.300781 80.273438 84.375 80 C 84.148438 77.925781 86.851562 71.449219 87.351562 71 C 87.851562 70.550781 90.375 69.800781 90.648438 69.5 C 92.023438 67.949219 92.375 66.425781 93.476562 64.800781 C 96.175781 60.976562 97.023438 57.25 95.449219 53.351562 Z M 101.300781 42.675781 L 101.300781 42.574219 C 99.351562 42.375 97.375 42.476562 95.449219 42.800781 C 93.523438 43.148438 91.601562 43.726562 89.824219 44.601562 C 88.050781 45.476562 86.375 46.625 84.976562 48.050781 C 84.273438 48.75 83.625 49.5 83.050781 50.273438 C 82.449219 51.050781 81.898438 51.875 81.449219 52.75 L 81.523438 52.800781 C 82.898438 51.398438 84.25 50.023438 85.675781 48.75 C 87.101562 47.476562 88.5 46.175781 90.199219 45.273438 C 91.851562 44.324219 93.675781 43.699219 95.550781 43.25 C 97.425781 42.824219 99.375 42.601562 101.300781 42.675781 Z M 101.300781 42.675781 "/>
</g>
</svg>
